<svg width="28" height="23" viewBox="0 0 28 23" fill="none" xmlns="http://www.w3.org/2000/svg">
<path d="M26.703 1.00206C26.5548 0.882818 26.3675 0.800259 26.1633 0.76409C25.959 0.727922 25.7462 0.739647 25.5499 0.797889L1.39105 7.89954C1.1827 7.96343 1.00333 8.07704 0.876746 8.22529C0.750166 8.37354 0.682373 8.54941 0.682373 8.72955C0.682373 8.90968 0.750166 9.08556 0.876746 9.23381C1.00333 9.38206 1.1827 9.49567 1.39105 9.55956L10.824 12.6044L17.7861 6.95857L19.3345 8.21024L12.3394 13.8649L16.117 21.4903C16.1984 21.6555 16.3392 21.7971 16.5213 21.8968C16.7034 21.9965 16.9183 22.0498 17.1383 22.0496C17.3602 22.0459 17.5755 21.988 17.7558 21.8834C17.9362 21.7788 18.0731 21.6325 18.1485 21.4637L26.9336 1.93415C27.0084 1.7771 27.0264 1.60608 26.9856 1.44105C26.9448 1.27602 26.8468 1.12377 26.703 1.00206Z" fill="#D84D4D"/>
</svg>
